<?xml version="1.0" standalone="no"?>
<!DOCTYPE svg PUBLIC "-//W3C//DTD SVG 20010904//EN"
 "http://www.w3.org/TR/2001/REC-SVG-20010904/DTD/svg10.dtd">
<svg version="1.0" xmlns="http://www.w3.org/2000/svg"
 width="1024.000000pt" height="1024.000000pt" viewBox="0 0 1024.000000 1024.000000"
 preserveAspectRatio="xMidYMid meet">
<metadata>
Created by potrace 1.11, written by Peter Selinger 2001-2013
</metadata>
<g transform="translate(0.000000,1024.000000) scale(0.100000,-0.100000)"
fill="#000000" stroke="none">
<path d="M8850 9513 c-14 -2 -169 -48 -345 -100 -176 -52 -363 -108 -415 -123
-92 -27 -600 -178 -1195 -355 -404 -121 -459 -137 -470 -139 -5 -1 -26 -7 -45
-13 -121 -38 -546 -164 -935 -277 -88 -26 -171 -51 -185 -56 -14 -5 -56 -18
-95 -29 -216 -64 -661 -195 -730 -216 -219 -66 -323 -97 -470 -140 -88 -26
-227 -67 -310 -91 -82 -25 -188 -56 -235 -70 -128 -38 -169 -54 -235 -90 -117
-64 -212 -193 -252 -341 -4 -16 -9 -1060 -10 -2322 -2 -1262 -5 -2296 -7
-2298 -2 -2 -43 6 -92 17 -148 34 -304 47 -504 44 -203 -4 -245 -7 -337 -23
-35 -6 -73 -13 -85 -15 -408 -72 -806 -293 -1006 -558 -68 -91 -131 -219 -146
-298 -2 -14 -8 -43 -13 -65 -6 -22 -9 -92 -7 -155 6 -298 160 -546 465 -752
199 -134 437 -231 694 -284 225 -46 643 -53 885 -14 404 65 746 227 985 466
137 138 228 302 250 454 3 25 8 54 10 65 2 11 4 939 4 2062 l1 2042 83 25 c72
22 337 100 797 234 162 47 486 143 625 183 55 17 107 32 115 34 13 3 424 124
755 221 66 20 152 45 190 55 39 11 88 26 110 33 45 15 147 45 173 51 9 2 202
58 427 125 226 66 457 134 515 151 58 17 148 44 200 59 52 15 145 42 205 60
61 18 129 38 153 46 23 8 45 14 47 14 3 0 5 -715 5 -1590 0 -874 -3 -1590 -7
-1590 -5 0 -24 4 -43 10 -135 37 -305 54 -525 54 -214 0 -293 -7 -477 -45
-313 -64 -572 -182 -790 -361 -247 -201 -360 -426 -354 -702 6 -238 86 -417
264 -592 270 -266 648 -430 1102 -480 75 -9 449 -11 515 -3 39 4 97 10 130 14
119 13 385 82 480 125 106 46 209 99 253 126 29 19 55 34 58 34 14 0 168 126
233 191 118 119 190 241 233 395 l23 79 2 3115 c2 3442 7 3186 -61 3315 -58
111 -194 224 -325 268 -56 19 -227 32 -281 20z"/>
</g>
</svg>
